<?xml version="1.0" encoding="UTF-8"?> <svg xmlns="http://www.w3.org/2000/svg" width="519" height="361" viewBox="0 0 519 361" fill="none"><path fill-rule="evenodd" clip-rule="evenodd" d="M33.0405 109.713H31.2804C27.7601 109.713 26 107.657 26 103.545V52.8762C26 48.764 27.7601 46.1205 31.2804 44.9456L73.0832 27.7624C75.4301 26.5875 78.2169 26 81.4438 26H153.169C155.222 26 156.836 26.5875 158.009 27.7624C159.182 28.9373 159.769 30.5528 159.769 32.6089V327.807C159.769 329.863 159.182 331.479 158.009 332.653C156.836 333.828 155.222 334.416 153.169 334.416H83.644C81.5905 334.416 79.9771 333.828 78.8036 332.653C77.6302 331.479 77.0435 329.863 77.0435 327.807V103.545C77.0435 102.957 76.7502 102.37 76.1635 101.782C75.8701 101.195 75.4301 101.048 74.8434 101.342L33.0405 109.713ZM51.0435 132.624V327.807C51.0435 335.014 53.2603 343.871 60.4071 351.026C67.558 358.187 76.4205 360.416 83.644 360.416H153.169C160.392 360.416 169.255 358.187 176.406 351.026C183.552 343.871 185.769 335.014 185.769 327.807V32.6089C185.769 25.4017 183.552 16.5453 176.406 9.38945C169.255 2.2293 160.392 0 153.169 0H81.4438C75.4301 0 68.8869 1.03946 62.5296 3.98962L21.9556 20.6677C16.0212 22.8647 10.0175 26.8829 5.67829 33.3999C1.22704 40.0854 0 47.1888 0 52.8762V103.545C0 108.705 1.01839 117.427 7.5687 125.079C14.7812 133.504 24.3653 135.713 31.2804 135.713H35.6182L51.0435 132.624Z" fill="white"></path><path fill-rule="evenodd" clip-rule="evenodd" d="M366.271 110.297H364.511C360.991 110.297 359.231 108.241 359.231 104.129V53.4603C359.231 49.3481 360.991 46.7046 364.511 45.5297L406.314 28.3465C408.661 27.1716 411.448 26.5841 414.675 26.5841H486.4C488.453 26.5841 490.066 27.1716 491.24 28.3465C492.413 29.5214 493 31.1369 493 33.193V328.391C493 330.447 492.413 332.063 491.24 333.238C490.066 334.412 488.453 335 486.4 335H416.875C414.821 335 413.208 334.412 412.034 333.238C410.861 332.063 410.274 330.447 410.274 328.391V104.129C410.274 103.541 409.981 102.954 409.394 102.366C409.101 101.779 408.661 101.632 408.074 101.926L366.271 110.297ZM384.274 133.208V328.391C384.274 335.598 386.491 344.455 393.638 351.611C400.789 358.771 409.651 361 416.875 361H486.4C493.623 361 502.486 358.771 509.636 351.611C516.783 344.455 519 335.598 519 328.391V33.193C519 25.9858 516.783 17.1294 509.637 9.97355C502.486 2.8134 493.623 0.584106 486.4 0.584106H414.675C408.661 0.584106 402.118 1.62357 395.76 4.57372L355.186 21.2518C349.252 23.4488 343.248 27.467 338.909 33.9841C334.458 40.6695 333.231 47.7729 333.231 53.4603V104.129C333.231 109.289 334.249 118.011 340.8 125.663C348.012 134.088 357.596 136.297 364.511 136.297H368.849L384.274 133.208Z" fill="white"></path><rect x="254.124" y="26.5841" width="22.3352" height="307.832" fill="#FF4255"></rect></svg> 