
<?xml version="1.0" encoding="UTF-8"?> <svg xmlns="http://www.w3.org/2000/svg" width="400" height="400" viewBox="0 0 400 400" fill="none"><rect width="400" height="400" fill="#140303"></rect><path d="M145.026 337.802C142.419 335.834 140.023 334.443 137.484 333.526C134.928 332.636 132.329 332.152 129.552 332.042C124.04 331.787 118.035 332.814 112.294 334.205C106.535 335.613 101.074 337.327 96.9721 338.727C92.9124 340.093 90.2456 341.127 90.2456 341.127C90.2456 341.127 92.853 342.655 97.0231 344.428C101.202 346.201 106.994 348.237 113.304 349.322C119.564 350.417 126.418 350.561 132.371 348.847C138.291 347.168 143.353 343.528 145.026 337.802Z" fill="#EBE7D9"></path><path d="M127.445 312.309C129.679 317.331 132.932 322.234 137.204 325.432C139.327 327.019 141.705 328.215 144.262 328.698C146.801 329.19 149.527 329.063 152.177 327.944C152.304 321.946 150.674 317.187 148.1 313.03C145.51 308.882 141.85 305.302 138.07 302.222C134.282 299.151 130.392 296.589 127.479 294.748C124.558 292.924 122.57 291.856 122.57 291.856C122.57 291.856 122.587 292.509 122.698 293.628C122.8 294.748 123.003 296.369 123.318 298.286C123.955 302.129 125.186 307.295 127.445 312.309Z" fill="#EBE7D9"></path><path d="M86.0659 325.721C91.8327 325.432 96.9285 323.235 100.504 318.425C97.6504 313.318 93.3019 310.561 88.1041 308.949C82.9149 307.363 76.8593 306.93 70.8972 306.735C64.9605 306.566 59.0579 306.71 54.633 306.727C50.0807 306.803 47.2354 306.854 47.2354 306.854C47.2354 306.854 47.796 307.456 48.8237 308.466C49.8513 309.407 51.346 310.816 53.1975 312.343C56.9599 315.431 62.2427 319.028 68.0944 321.666C73.9291 324.313 80.3076 325.992 86.0659 325.721Z" fill="#EBE7D9"></path><path d="M97.0206 303.013C100.29 307.153 104.851 309.876 110.533 309.571C112.835 304.048 112.444 298.772 110.881 293.936C109.327 289.101 106.55 284.673 103.756 280.813C100.936 276.944 98.0738 273.644 95.9675 271.277C94.9483 270.09 94.0651 269.148 93.4281 268.503C92.8506 267.833 92.4938 267.502 92.4938 267.502C92.4938 267.502 92.2901 268.096 92.0013 269.148C91.7295 270.217 91.4153 271.744 91.118 273.61C90.498 277.394 90.2261 282.543 91.033 287.956C91.8313 293.325 93.7508 298.848 97.0206 303.013Z" fill="#EBE7D9"></path><path d="M26.5119 261.751C22.4267 260.47 19.7939 259.723 19.7939 259.723C19.7939 259.723 20.0402 260.393 20.5497 261.547C21.1018 262.65 21.9342 264.253 22.9788 266.119C24.0405 267.994 25.3145 270.157 26.8092 272.439C27.5651 273.576 28.3548 274.747 29.1956 275.918L29.8666 276.817L30.6989 277.92C31.2849 278.641 31.8625 279.37 32.4315 280.091C37.2047 285.775 43.099 290.11 48.8912 291.934C54.6835 293.792 60.3058 293.181 65.1044 289.584C63.7625 283.841 60.5181 279.939 56.1526 276.511C55.091 275.646 53.8937 274.866 52.7131 274.043C51.5071 273.228 50.233 272.456 48.9335 271.693C47.6511 270.879 46.3177 270.09 44.9588 269.326C43.6594 268.622 42.4024 267.994 41.0859 267.366C35.9137 264.94 30.5801 263.048 26.5119 261.751Z" fill="#EBE7D9"></path><path d="M66.4978 271.964C68.0351 276.927 71.6276 281.007 77.0716 282.271C80.8681 277.631 82.0741 272.541 82.3798 267.756C82.6516 262.954 82.0316 258.424 81.522 254.598C81.3437 252.987 80.6982 250.264 80.0952 248.134C79.4752 245.929 78.7958 243.96 78.1843 242.306C77.5728 240.626 76.9867 239.286 76.5875 238.336C76.2393 237.394 76.0355 236.851 76.0355 236.851C76.0355 236.851 75.6279 237.394 75.0164 238.37C74.3454 239.346 73.5725 240.72 72.6468 242.45C70.8463 245.895 68.6721 250.73 67.1603 256.058C66.7781 257.398 66.4467 258.772 66.175 260.155C65.9117 261.436 65.7249 262.759 65.5975 264.108C65.5296 265.432 65.5889 266.764 65.7078 268.104C65.8352 269.436 66.1496 270.7 66.4978 271.964Z" fill="#EBE7D9"></path><path d="M20.2611 241.6C21.2039 242.754 22.2995 243.763 23.429 244.722C24.5331 245.672 25.6796 246.529 26.8856 247.301C31.6247 250.338 36.9074 251.619 42.6488 249.956C43.1329 247.08 42.912 244.468 42.1561 242.033C41.7824 240.837 41.273 239.666 40.619 238.546C40.0075 237.409 39.2092 236.349 38.4872 235.263C35.3873 230.979 30.631 227.28 25.8324 223.963C21.1697 220.638 16.2608 217.754 12.5068 215.692C8.67647 213.631 6.24756 212.35 6.24756 212.35C6.24756 212.35 6.35777 213.088 6.68051 214.318C7.00324 215.548 7.52989 217.295 8.24331 219.391C9.67014 223.548 11.6574 229.155 14.9613 234.245C16.558 236.816 18.3332 239.344 20.2611 241.6Z" fill="#EBE7D9"></path><path d="M51.3122 239.361C52.4248 241.618 54.0641 243.603 56.3402 245.206C61.5465 242.228 64.5445 237.766 66.1158 232.914C66.5149 231.701 66.8121 230.445 67.0499 229.198C67.1603 228.579 67.2623 227.934 67.3387 227.323C67.4236 226.687 67.5339 226.051 67.6273 225.389C67.9586 222.827 68.0351 220.265 67.9587 217.805C67.6275 212.893 67.3387 208.27 66.7187 204.902C66.4385 203.222 66.1157 201.848 65.8949 200.889C65.7336 199.914 65.6401 199.388 65.6401 199.388C65.6401 199.388 65.156 199.812 64.3576 200.635C63.5253 201.449 62.4806 202.62 61.2745 204.105C58.8285 207.099 55.7881 211.375 53.3166 216.312C50.981 221.215 49.4778 226.746 49.5032 232.014C49.4948 233.346 49.6985 234.61 50.0127 235.823C50.3185 237.054 50.7516 238.241 51.3122 239.361Z" fill="#EBE7D9"></path><path d="M10.2577 194.358C10.9881 195.673 11.7608 196.954 12.6441 198.133C13.5444 199.287 14.5297 200.381 15.5404 201.374C19.6425 205.336 24.5854 207.626 30.5561 207.066C31.5667 204.343 31.864 201.739 31.5837 199.228C31.4223 197.981 31.1421 196.725 30.7429 195.512C30.3607 194.282 29.9532 193.06 29.3926 191.881C28.297 189.463 26.7596 187.113 25.0016 184.84C24.0928 183.703 23.1926 182.566 22.3008 181.43C21.3836 180.327 20.4408 179.224 19.4811 178.147C15.5827 173.863 11.2598 169.943 8.27024 166.991C5.18725 164.098 3.01307 162.223 3.01307 162.223C3.01307 162.223 2.92811 165.201 3.19139 169.68C3.34427 171.911 3.80297 174.499 4.32954 177.281C4.57584 178.681 4.88993 180.106 5.23815 181.557C5.58637 182.999 5.93457 184.484 6.50361 185.926C7.56524 188.827 8.80538 191.686 10.2577 194.358Z" fill="#EBE7D9"></path><path d="M44.7301 203.883C50.412 201.932 54.217 198.149 56.7054 193.831C57.3424 192.745 57.8689 191.625 58.3445 190.488C58.8966 189.334 59.3722 188.164 59.7968 186.984C60.6291 184.609 61.2153 182.208 61.623 179.859C62.0646 177.543 62.5486 175.269 62.7779 173.165C62.9053 172.113 62.9903 171.104 63.0667 170.162C63.1347 169.204 63.1687 168.304 63.2791 167.49C63.6443 164.224 63.5932 162.078 63.5932 162.078C63.5932 162.078 61.3852 163.291 58.2512 165.547C57.4699 166.107 56.6289 166.752 55.7371 167.456C54.8538 168.16 53.9367 168.932 53.0874 169.747C51.3378 171.409 49.5203 173.318 47.8047 175.413C46.9554 176.448 46.1314 177.559 45.3331 178.688C44.9594 179.265 44.5689 179.859 44.2122 180.452C43.8724 181.029 43.5666 181.632 43.2778 182.242C42.0973 184.66 41.1885 187.188 40.6874 189.75C40.4751 191.014 40.2968 192.295 40.3223 193.542C40.3902 194.789 40.594 196.045 40.9167 197.224C41.5962 199.642 42.8107 201.915 44.7301 203.883Z" fill="#EBE7D9"></path><path d="M24.0924 132.124C22.7675 129.579 21.3323 127.085 19.9394 124.761C18.4956 122.419 17.2047 120.324 16.126 118.534C13.8839 114.954 12.2531 112.613 12.2531 112.613C12.2531 112.613 11.4038 115.446 10.5205 119.815C10.1808 122.038 9.86656 124.65 9.67122 127.484C9.54382 128.892 9.46757 130.343 9.43359 131.836C9.43359 133.337 9.53533 134.873 9.67122 136.425C9.9345 139.496 10.3254 142.601 11.1152 145.536C11.99 148.489 13.1364 151.279 14.5972 153.697C17.4169 158.541 21.9693 161.918 27.872 162.749C28.6449 161.553 29.2138 160.357 29.6469 159.118C30.0716 157.905 30.4794 156.675 30.6493 155.436C31.0569 152.959 30.8614 150.397 30.2669 147.81C29.7658 145.231 28.9676 142.601 27.855 139.963C26.7339 137.341 25.3579 134.678 24.0924 132.124Z" fill="#EBE7D9"></path><path d="M56.2031 154.801C57.9951 153.054 59.5155 151.086 60.7725 149.041C62.1653 147.005 63.4138 144.91 64.3905 142.797C64.9171 141.754 65.3077 140.719 65.8003 139.709C66.2929 138.7 66.7261 137.707 67.1168 136.749C67.9236 134.832 68.4926 133.033 69.0192 131.515C70.1997 128.478 70.6923 126.425 70.6923 126.425C70.6923 126.425 68.2634 127.019 64.6369 128.376C60.9339 129.708 56.4834 131.964 52.0586 135.103C50.9799 135.884 49.8334 136.732 48.8566 137.648C47.8715 138.556 46.9117 139.497 46.0284 140.507C44.2703 142.526 42.6652 144.732 41.6035 147.056C40.6013 149.389 40.0322 151.841 40.0322 154.301C40.0492 155.539 40.1597 156.769 40.5419 157.982C40.9581 159.204 41.4931 160.417 42.249 161.588C48.2366 161.028 52.5341 158.271 56.2031 154.801Z" fill="#EBE7D9"></path><path d="M38.7753 116.439C39.5736 115.412 40.2021 114.309 40.7032 113.173C41.2043 112.019 41.578 110.823 41.8159 109.576C42.0621 108.337 42.1556 107.048 42.3 105.767C42.4784 103.154 42.3 100.422 41.8669 97.5888C41.4337 94.7554 40.9581 91.956 40.2193 89.1395C38.7754 83.4896 37.2041 78.1705 35.8112 74.1239C34.4098 70.0774 33.4501 67.4816 33.4501 67.4816C33.4501 67.4816 33.068 68.0925 32.4565 69.2123C31.8619 70.349 31.0552 71.9608 30.1719 73.9798C28.2524 77.95 26.3584 83.5999 25.1693 89.5382C24.6682 92.5752 24.3625 95.6632 24.3625 98.6747C24.3201 100.159 24.4731 101.678 24.7109 103.137C24.9232 104.613 25.2203 106.021 25.6195 107.362C26.4433 110.085 27.5815 112.486 29.3736 114.564C31.1401 116.634 33.3738 118.297 36.117 119.467C37.1872 118.517 38.0618 117.499 38.7753 116.439Z" fill="#EBE7D9"></path><path d="M85.8368 94.9582C86.3379 94.1607 86.6181 93.6772 86.6181 93.6772C86.6181 93.6772 85.9641 93.6772 84.8515 93.7281C83.705 93.7705 82.1508 93.8893 80.2568 94.1268C78.3629 94.3474 76.1633 94.7207 73.7512 95.2636C72.5707 95.5521 71.2967 95.8404 70.0822 96.2222C68.8761 96.6039 67.6276 97.0366 66.3876 97.5371C63.9246 98.5466 61.3682 99.7259 59.1515 101.202C56.9602 102.703 54.9305 104.434 53.2743 106.385C52.425 107.361 51.7711 108.421 51.2021 109.524C50.667 110.61 50.2338 111.764 49.9196 112.951C49.6223 114.13 49.4609 115.344 49.4609 116.599C49.5204 117.88 49.7668 119.178 50.1914 120.484C53.1215 120.976 55.8562 120.841 58.3617 120.298C60.8331 119.721 63.2622 118.788 65.4025 117.575C66.4811 116.947 67.4916 116.277 68.4768 115.539C68.9779 115.174 69.4282 114.792 69.8868 114.394C70.3709 114.02 70.8465 113.621 71.3136 113.223C73.1906 111.619 74.8466 109.863 76.3244 108.082C77.8957 106.334 79.3312 104.578 80.5287 102.882C80.8259 102.466 81.1062 102.05 81.395 101.635C81.7007 101.236 81.964 100.829 82.2613 100.464C82.8218 99.7003 83.3312 98.9624 83.7729 98.2837C84.6731 96.9264 85.3527 95.7556 85.8368 94.9582Z" fill="#EBE7D9"></path><path d="M54.946 79.9697C57.5024 78.6887 59.3879 76.975 60.8487 74.973C62.4029 73.0388 63.4647 70.7483 64.1781 68.2203C65.7238 63.2745 65.9701 57.3701 65.8937 51.6694C65.8767 50.2272 65.8171 48.7935 65.7322 47.4022C65.6897 46.0195 65.5963 44.6623 65.4944 43.3474C65.3075 40.7091 65.0359 38.2574 64.7981 36.1451C64.3734 32.0053 63.9063 29.2481 63.9063 29.2481C63.9063 29.2481 63.4306 29.791 62.5983 30.7072C61.783 31.6488 60.6278 32.9977 59.3624 34.7537C58.0884 36.5183 56.5852 38.5288 55.1924 40.9041C53.8335 43.271 52.3897 45.816 51.2262 48.5815C50.0796 51.3641 49.0349 54.2145 48.4064 57.1413C47.7779 60.068 47.4807 62.9862 47.6081 65.7517C47.9648 71.3677 50.1899 76.3813 54.946 79.9697Z" fill="#EBE7D9"></path><path d="M96.622 76.9587C98.5499 75.5675 100.376 74.1593 101.93 72.7341C103.544 71.3513 105.005 70.0618 106.168 68.8911C107.332 67.7204 108.343 66.7787 109.005 66.0746C109.667 65.4044 110.024 64.9889 110.024 64.9889C110.024 64.9889 107.544 64.4459 103.68 64.0557C101.743 63.869 99.5267 63.7672 97.0722 63.7842C94.6177 63.8011 91.9592 63.9623 89.3349 64.3949C84.0097 65.1584 78.6507 66.9739 74.5485 70.011C72.5526 71.5804 70.8795 73.4213 69.699 75.5506C68.6034 77.7138 68.0343 80.2079 68.1702 82.931C73.6822 85.3318 78.8969 85.1196 83.6446 83.7284C86.0651 83.0582 88.3583 82.0658 90.4815 80.8611C92.6558 79.7074 94.745 78.3839 96.622 76.9587Z" fill="#EBE7D9"></path><path d="M86.022 302.129C101.7 315.125 120.827 324.024 139.588 331.574C154.943 337.784 174.647 347.913 194.716 357.355C176.677 362.979 158.884 367.552 144.573 369.953C142.696 370.241 152.327 380.048 154.136 379.488C170.749 374.5 187.608 368.434 204.229 361.741C222.387 369.987 240.316 377.045 255.077 379.505C256.937 379.827 262.712 369.953 260.852 369.63C246.864 367.297 230.625 363.132 213.698 357.839C241.564 346.157 268.394 332.94 291.597 320.326C316.77 306.608 335.676 287.164 348.11 261.307C359.635 237.359 367.746 210.891 368.952 184.296C370.599 147.47 358.225 111.331 339.014 80.2821C333.391 71.1965 327.098 62.1365 320.134 53.7041C320.737 51.3627 320.83 49.0977 320.405 46.9599C319.947 44.4149 318.953 41.9885 317.433 39.7998C314.52 35.3461 309.789 31.7408 304.94 29.077C300.073 26.3963 295.002 24.7167 291.215 23.8259C289.312 23.3594 287.741 23.0879 286.654 22.9436C286.102 22.8758 285.677 22.8332 285.388 22.8163C285.134 22.7823 284.989 22.7825 284.989 22.7825C284.989 22.7825 285.04 22.9267 285.151 23.1642C285.286 23.4187 285.456 23.8088 285.703 24.2839C286.204 25.2594 286.917 26.6422 287.817 28.3049C289.618 31.6473 292.073 36.0164 294.986 40.2919C296.412 42.4467 298.052 44.4997 299.733 46.4508C300.574 47.4094 301.474 48.3256 302.417 49.1569C303.326 50.0222 304.277 50.8197 305.296 51.5238C307.334 52.8981 309.475 54.0348 311.887 54.6456C313.704 55.0952 315.624 55.2989 317.696 55.1717C331.081 70.9845 342.037 89.3594 350.386 107.794C361.011 131.275 366.667 156.861 366.056 182.659C365.41 210.764 356.017 239.31 343.405 264.276C333.57 283.712 319.267 299.55 300.973 311.376C284.615 321.946 266.67 329.861 248.834 337.58C235.458 343.358 219.601 349.279 203.507 354.555C169.059 343.052 133.057 327.511 108.087 313.428C95.0501 306.082 83.2532 297.073 73.4777 285.697C63.7106 274.312 56.6784 260.824 51.0305 247.03C40.3123 220.876 33.5177 193.797 35.1823 165.378C37.1187 132.251 50.1556 100.557 68.3053 73.0628C72.968 66.0386 78.013 59.0146 83.5166 52.4061C85.487 52.4994 87.3383 52.2957 89.1219 51.8631C91.5254 51.2523 93.6572 50.1155 95.7125 48.7243C96.6977 48.0202 97.666 47.2397 98.5833 46.3744C99.526 45.543 100.426 44.6269 101.267 43.6683C102.966 41.7001 104.562 39.6641 106.015 37.5094C108.919 33.2338 111.374 28.8311 113.166 25.5226C114.066 23.8599 114.796 22.4601 115.281 21.4676C115.527 20.9925 115.705 20.6192 115.841 20.3647C115.943 20.1272 115.986 20 115.986 20C115.986 20 115.858 20 115.595 20C115.306 20.0169 114.89 20.0762 114.355 20.1441C113.259 20.3053 111.671 20.5768 109.786 21.0264C105.998 21.9341 100.936 23.6138 96.0608 26.269C91.2113 28.9582 86.4805 32.5466 83.5589 37.0088C82.0556 39.206 81.0364 41.6323 80.5863 44.1604C80.1701 46.2642 80.2551 48.5037 80.8326 50.7942C68.0166 66.0047 57.4172 83.5142 49.2044 101.058C39.0637 122.741 32.9402 146.206 32.0059 170.163C30.9613 197.674 38.4522 224.049 48.8053 249.269C57.1115 269.578 69.0018 288.029 86.022 302.129Z" fill="#EBE7D9"></path><path d="M287.708 352.112C294.001 351.035 299.793 349.007 303.989 347.226C308.142 345.436 310.749 343.934 310.749 343.934C310.749 343.934 308.099 342.874 304.023 341.516C299.929 340.125 294.468 338.394 288.71 336.986C282.951 335.612 276.955 334.568 271.443 334.823C268.675 334.933 266.059 335.417 263.511 336.316C260.963 337.224 258.585 338.615 255.986 340.566C257.65 346.335 262.695 349.966 268.624 351.628C274.586 353.359 281.431 353.215 287.708 352.112Z" fill="#EBE7D9"></path><path d="M256.76 331.483C259.3 331 261.661 329.804 263.801 328.234C268.056 325.019 271.309 320.116 273.56 315.111C275.81 310.088 277.025 304.931 277.687 301.079C278.01 299.153 278.197 297.542 278.307 296.422C278.401 295.311 278.435 294.657 278.435 294.657C278.435 294.657 276.447 295.718 273.534 297.542C270.596 299.383 266.74 301.936 262.935 305.032C259.164 308.103 255.478 311.683 252.896 315.815C250.323 319.98 248.692 324.731 248.845 330.745C251.469 331.865 254.204 331.992 256.76 331.483Z" fill="#EBE7D9"></path><path d="M330.107 309.533C324.153 309.728 318.072 310.144 312.892 311.731C307.694 313.351 303.354 316.116 300.509 321.206C304.067 326.008 309.18 328.248 314.93 328.502C320.688 328.791 327.067 327.111 332.91 324.456C338.762 321.809 344.044 318.229 347.79 315.124C349.658 313.622 351.153 312.214 352.181 311.247C353.208 310.246 353.752 309.652 353.752 309.652C353.752 309.652 350.898 309.601 346.38 309.525C341.938 309.491 336.052 309.364 330.107 309.533Z" fill="#EBE7D9"></path><path d="M290.476 312.368C296.124 312.674 300.702 309.942 303.988 305.794C307.233 301.645 309.195 296.131 309.968 290.753C310.774 285.341 310.511 280.174 309.874 276.408C309.586 274.541 309.254 273.014 308.974 271.929C308.694 270.877 308.49 270.283 308.49 270.283C308.49 270.283 308.142 270.639 307.556 271.292C306.919 271.929 306.035 272.879 305.025 274.075C302.918 276.442 300.073 279.725 297.245 283.585C294.451 287.453 291.682 291.89 290.102 296.717C288.565 301.586 288.157 306.854 290.476 312.368Z" fill="#EBE7D9"></path><path d="M368.564 282.881C369.158 282.16 369.744 281.439 370.313 280.701L371.137 279.598L371.799 278.699C372.64 277.537 373.439 276.366 374.178 275.229C375.672 272.973 376.963 270.792 378.025 268.926C379.07 267.034 379.876 265.448 380.428 264.328C380.963 263.192 381.21 262.521 381.21 262.521C381.21 262.521 378.568 263.285 374.475 264.549C370.424 265.847 365.098 267.721 359.926 270.156C358.61 270.775 357.327 271.42 356.053 272.124C354.694 272.896 353.344 273.677 352.07 274.457C350.771 275.255 349.497 276.01 348.299 276.841C347.102 277.647 345.913 278.427 344.842 279.31C340.477 282.72 337.241 286.622 335.908 292.382C340.698 295.971 346.329 296.59 352.121 294.724C357.888 292.908 363.799 288.556 368.564 282.881Z" fill="#EBE7D9"></path><path d="M333.843 258.856C332.331 253.511 330.149 248.693 328.348 245.232C327.439 243.51 326.633 242.127 325.987 241.16C325.35 240.193 324.976 239.65 324.976 239.65C324.976 239.65 324.772 240.193 324.416 241.126C324.008 242.067 323.431 243.425 322.811 245.096C322.191 246.759 321.52 248.727 320.917 250.915C320.314 253.045 319.651 255.785 319.481 257.397C318.972 261.189 318.36 265.753 318.615 270.554C318.929 275.339 320.135 280.429 323.915 285.052C329.376 283.788 332.943 279.725 334.506 274.745C334.854 273.498 335.177 272.217 335.304 270.894C335.414 269.562 335.465 268.23 335.38 266.89C335.27 265.549 335.075 264.234 334.82 262.936C334.539 261.562 334.208 260.179 333.843 258.856Z" fill="#EBE7D9"></path><path d="M394.33 217.119C394.636 215.872 394.755 215.151 394.755 215.151C394.755 215.151 392.334 216.432 388.495 218.493C384.75 220.555 379.832 223.422 375.186 226.764C370.362 230.047 365.606 233.78 362.523 238.047C361.767 239.141 360.995 240.21 360.366 241.33C359.729 242.45 359.202 243.621 358.837 244.834C358.073 247.252 357.869 249.881 358.353 252.74C364.077 254.411 369.377 253.122 374.125 250.085C375.314 249.338 376.46 248.456 377.59 247.506C378.686 246.564 379.798 245.538 380.749 244.401C382.669 242.128 384.461 239.599 386.041 237.046C389.344 231.939 391.332 226.34 392.759 222.175C393.455 220.096 393.99 218.332 394.33 217.119Z" fill="#EBE7D9"></path><path d="M344.647 248.007C346.923 246.42 348.579 244.401 349.692 242.145C350.261 241.025 350.669 239.846 350.991 238.624C351.289 237.394 351.518 236.147 351.501 234.815C351.535 229.556 350.023 224.016 347.679 219.104C345.199 214.158 342.15 209.9 339.738 206.905C338.507 205.421 337.479 204.25 336.647 203.436C335.857 202.621 335.364 202.172 335.364 202.172C335.364 202.172 335.254 202.715 335.101 203.673C334.889 204.632 334.574 206.015 334.286 207.711C333.657 211.071 333.368 215.677 333.045 220.589C332.944 223.057 333.046 225.611 333.385 228.19C333.479 228.835 333.572 229.471 333.657 230.115C333.742 230.735 333.844 231.363 333.946 231.999C334.175 233.246 334.489 234.501 334.889 235.698C336.468 240.55 339.432 245.029 344.647 248.007Z" fill="#EBE7D9"></path><path d="M381.538 180.945C380.553 182.005 379.619 183.108 378.702 184.228C377.81 185.348 376.893 186.484 375.975 187.621C374.226 189.912 372.706 192.262 371.601 194.662C371.041 195.841 370.616 197.08 370.251 198.302C369.835 199.532 369.546 200.762 369.419 202.026C369.138 204.537 369.419 207.133 370.455 209.847C376.4 210.407 381.36 208.142 385.462 204.172C386.473 203.179 387.449 202.085 388.358 200.923C389.242 199.735 389.997 198.471 390.736 197.148C392.197 194.484 393.437 191.625 394.49 188.707C395.059 187.273 395.416 185.797 395.773 184.321C396.112 182.888 396.41 181.462 396.673 180.071C397.2 177.297 397.641 174.71 397.802 172.47C398.066 167.999 397.989 165.039 397.989 165.039C397.989 165.039 395.798 166.879 392.724 169.789C389.743 172.724 385.428 176.644 381.538 180.945Z" fill="#EBE7D9"></path><path d="M360.077 200.026C360.408 198.83 360.621 197.591 360.68 196.344C360.714 195.08 360.527 193.816 360.298 192.535C359.805 189.99 358.905 187.445 357.724 185.027C357.427 184.425 357.105 183.831 356.799 183.237C356.442 182.643 356.051 182.075 355.669 181.498C354.888 180.361 354.039 179.242 353.189 178.198C351.482 176.103 349.673 174.202 347.915 172.548C347.074 171.717 346.148 170.945 345.257 170.241C344.382 169.554 343.533 168.909 342.751 168.357C339.6 166.101 337.392 164.871 337.392 164.871C337.392 164.871 337.358 167.026 337.706 170.292C337.842 171.106 337.876 172.005 337.918 172.947C338.003 173.914 338.088 174.898 338.216 175.958C338.462 178.054 338.929 180.328 339.379 182.66C339.779 185.002 340.365 187.411 341.205 189.786C341.622 190.957 342.106 192.119 342.649 193.273C343.133 194.427 343.668 195.546 344.297 196.615C346.785 200.95 350.573 204.717 356.247 206.668C358.192 204.683 359.415 202.426 360.077 200.026Z" fill="#EBE7D9"></path><path d="M370.719 150.611C370.116 153.198 369.955 155.726 370.346 158.22C370.516 159.476 370.923 160.689 371.348 161.919C371.773 163.141 372.359 164.354 373.123 165.55C379.034 164.71 383.603 161.342 386.406 156.481C387.875 154.063 388.997 151.281 389.888 148.337C390.67 145.385 391.077 142.297 391.332 139.209C391.451 137.674 391.553 136.121 391.562 134.62C391.519 133.135 391.434 131.676 391.332 130.268C391.128 127.451 390.823 124.83 390.491 122.616C389.583 118.23 388.742 115.414 388.742 115.414C388.742 115.414 387.128 117.738 384.877 121.335C383.782 123.116 382.491 125.22 381.064 127.562C379.671 129.886 378.244 132.363 376.911 134.925C375.654 137.47 374.261 140.125 373.165 142.755C372.027 145.385 371.238 148.015 370.719 150.611Z" fill="#EBE7D9"></path><path d="M359.398 149.855C358.337 147.522 356.732 145.325 354.974 143.306C354.073 142.296 353.131 141.338 352.154 140.43C351.169 139.514 350.022 138.699 348.944 137.902C344.519 134.763 340.06 132.506 336.348 131.158C332.747 129.817 330.284 129.223 330.284 129.223C330.284 129.223 330.802 131.276 331.991 134.279C332.492 135.815 333.078 137.63 333.894 139.531C334.267 140.489 334.718 141.482 335.21 142.491C335.677 143.501 336.077 144.553 336.62 145.596C337.588 147.691 338.82 149.804 340.23 151.84C341.487 153.884 342.998 155.835 344.79 157.6C348.468 161.07 352.765 163.81 358.753 164.37C359.483 163.199 360.052 162.003 360.443 160.781C360.842 159.551 360.919 158.321 360.961 157.099C360.961 154.639 360.375 152.188 359.398 149.855Z" fill="#EBE7D9"></path><path d="M367.542 70.2826C367.542 70.2826 366.565 72.8614 365.172 76.9249C363.779 80.9714 362.217 86.2735 360.764 91.9403C360.051 94.7568 359.567 97.5564 359.125 100.39C358.701 103.223 358.505 105.972 358.701 108.551C358.836 109.849 358.938 111.138 359.184 112.377C359.431 113.624 359.788 114.82 360.297 115.957C360.79 117.093 361.427 118.196 362.2 119.24C362.93 120.3 363.813 121.301 364.858 122.268C367.635 121.097 369.852 119.435 371.618 117.348C373.419 115.286 374.531 112.869 375.364 110.163C375.78 108.805 376.077 107.397 376.307 105.938C376.51 104.47 376.672 102.969 376.638 101.476C376.621 98.4639 376.307 95.3592 375.831 92.3392C374.633 86.3839 372.722 80.717 370.828 76.7808C369.945 74.7787 369.121 73.1328 368.544 71.9961C367.932 70.8932 367.542 70.2826 367.542 70.2826Z" fill="#EBE7D9"></path><path d="M349.784 112.309C349.223 111.207 348.578 110.155 347.72 109.188C346.055 107.237 344.042 105.498 341.843 104.005C339.626 102.52 337.07 101.332 334.624 100.34C333.384 99.8476 332.135 99.398 330.921 99.0162C329.706 98.626 328.432 98.3207 327.226 98.0662C324.848 97.5063 322.64 97.1584 320.737 96.9294C318.852 96.6918 317.298 96.5646 316.168 96.5307C315.013 96.4883 314.393 96.4882 314.393 96.4882C314.393 96.4882 314.648 96.9463 315.175 97.7437C315.65 98.5666 316.304 99.7118 317.23 101.078C317.68 101.765 318.164 102.486 318.733 103.258C319.022 103.64 319.311 104.021 319.616 104.42C319.88 104.836 320.177 105.252 320.483 105.667C321.672 107.364 323.082 109.145 324.67 110.867C326.139 112.666 327.812 114.405 329.672 116.008C330.148 116.424 330.64 116.806 331.099 117.196C331.566 117.595 332.033 117.959 332.526 118.333C333.494 119.062 334.522 119.741 335.6 120.343C337.724 121.573 340.161 122.54 342.65 123.083C345.138 123.643 347.864 123.771 350.82 123.27C351.228 121.964 351.482 120.666 351.533 119.385C351.533 118.138 351.38 116.924 351.083 115.737C350.786 114.549 350.336 113.412 349.784 112.309Z" fill="#EBE7D9"></path><path d="M346.057 82.751C350.821 79.1625 353.021 74.1574 353.378 68.55C353.531 65.7844 353.208 62.8575 352.588 59.9308C351.959 57.0125 350.94 54.1623 349.768 51.3628C348.613 48.6142 347.169 46.0522 345.793 43.6854C344.409 41.327 342.897 39.2995 341.649 37.5435C340.383 35.7959 339.22 34.4386 338.387 33.4884C337.572 32.5638 337.088 32.0293 337.088 32.0293C337.088 32.0293 336.638 34.8203 336.196 38.9516C335.95 41.0385 335.695 43.5071 335.508 46.1285C335.398 47.4434 335.321 48.8007 335.27 50.1835C335.194 51.5917 335.109 53.0169 335.101 54.4506C335.033 60.1514 335.288 66.0558 336.808 71.0185C337.538 73.5296 338.591 75.8031 340.128 77.7712C341.589 79.7732 343.5 81.47 346.057 82.751Z" fill="#EBE7D9"></path><path d="M326.454 72.8107C322.36 69.7737 317.001 67.9496 311.659 67.1607C309.043 66.745 306.385 66.5838 303.922 66.5669C301.476 66.5669 299.242 66.6687 297.323 66.8384C293.45 67.2456 290.987 67.7714 290.987 67.7714C290.987 67.7714 291.327 68.1872 291.998 68.8743C292.66 69.5615 293.679 70.5032 294.817 71.6908C295.989 72.8615 297.476 74.1425 299.072 75.5338C300.626 76.942 302.452 78.3672 304.363 79.7584C306.257 81.1667 308.347 82.4901 310.521 83.6439C312.661 84.8485 314.929 85.8579 317.358 86.5111C322.105 87.9024 327.303 88.123 332.832 85.7137C332.96 82.9906 332.408 80.5135 331.304 78.3333C330.123 76.204 328.441 74.3631 326.454 72.8107Z" fill="#EBE7D9"></path><path d="M97.391 214.172H103.836V221.286H97.391V214.172ZM103.836 201.202H97.391V195.421H103.836V201.202ZM113.54 234.256C117.393 234.256 120.06 231.588 120.06 227.808V214.69C120.06 210.837 116.948 208.391 113.392 208.391V206.983C116.948 206.983 120.06 204.537 120.06 200.757V188.825C120.06 185.045 117.393 182.377 113.54 182.377H81.1675V234.256H113.54Z" fill="#EBE7D9"></path><path d="M142.115 210.837L143.597 195.421H145.375L146.856 210.837H142.115ZM131.003 182.377L123.743 227.808V234.256H139.893L140.93 223.806H148.042L149.005 234.256H165.228V227.808L157.968 182.377H131.003Z" fill="#EBE7D9"></path><path d="M169.644 234.256H202.091V221.286H185.793V182.377H169.644V234.256Z" fill="#EBE7D9"></path><path d="M205.816 234.256H238.263V221.286H221.965V182.377H205.816V234.256Z" fill="#EBE7D9"></path><path d="M276.657 234.256V221.286H258.137V214.172H274.065V201.202H258.137V195.421H274.065L276.657 188.825V182.377H241.988V234.256H276.657Z" fill="#EBE7D9"></path><path d="M303.794 195.421V205.13H297.349V195.421H303.794ZM281.126 182.377V234.256H297.349V218.1H300.609L304.98 234.256H320.833V227.808L315.721 215.061C318.166 214.394 320.018 211.652 320.018 209.206V188.825C320.018 185.045 317.351 182.377 313.573 182.377H281.126Z" fill="#EBE7D9"></path><path d="M225.394 166.924C232.058 166.924 236.671 162.832 236.671 157.034V124.936C236.671 119.138 232.058 115.046 225.394 115.046H168.182C161.518 115.046 156.905 119.138 156.905 124.936V157.034C156.905 162.832 161.518 166.924 168.182 166.924H225.394Z" fill="#EBE7D9"></path><path d="M97.9548 151.611V166.924H126.019V151.611H143.96V115.046H81.1675V151.611H97.9548Z" fill="#EBE7D9"></path><path d="M309.557 152.076C316.22 152.076 320.833 147.87 320.833 142.072V124.936C320.833 119.138 316.22 115.046 309.557 115.046H253.556V166.924H281.62V152.076H309.557Z" fill="#EBE7D9"></path><path d="M156.5 25L161.552 40.5471H177.899L164.674 50.1558L169.725 65.7029L156.5 56.0942L143.275 65.7029L148.326 50.1558L135.101 40.5471H151.448L156.5 25Z" fill="#EBE7D9"></path><path d="M200.5 1L205.552 16.5471H221.899L208.674 26.1558L213.725 41.7029L200.5 32.0942L187.275 41.7029L192.326 26.1558L179.101 16.5471H195.448L200.5 1Z" fill="#EBE7D9"></path><path d="M244.5 25L249.552 40.5471H265.899L252.674 50.1558L257.725 65.7029L244.5 56.0942L231.275 65.7029L236.326 50.1558L223.101 40.5471H239.448L244.5 25Z" fill="#EBE7D9"></path><path d="M200.5 320L205.552 304.453H221.899L208.674 294.844L213.725 279.297L200.5 288.906L187.275 279.297L192.326 294.844L179.101 304.453H195.448L200.5 320Z" fill="#EBE7D9"></path></svg> 